<?xml version="1.0" encoding="UTF-8" standalone="no"?>
<!-- Created with Inkscape (http://www.inkscape.org/) -->

<svg
   xmlns:dc="http://purl.org/dc/elements/1.1/"
   xmlns:cc="http://creativecommons.org/ns#"
   xmlns:rdf="http://www.w3.org/1999/02/22-rdf-syntax-ns#"
   xmlns:svg="http://www.w3.org/2000/svg"
   xmlns="http://www.w3.org/2000/svg"
   xmlns:sodipodi="http://sodipodi.sourceforge.net/DTD/sodipodi-0.dtd"
   xmlns:inkscape="http://www.inkscape.org/namespaces/inkscape"
   id="svg2985"
   version="1.1"
   inkscape:version="0.48.4 r9939"
   width="152.70238"
   height="106.5731"
   xml:space="preserve"
   sodipodi:docname="agordo.svg"><metadata
     id="metadata2991"><rdf:RDF><cc:Work
         rdf:about=""><dc:format>image/svg+xml</dc:format><dc:type
           rdf:resource="http://purl.org/dc/dcmitype/StillImage" /><dc:title></dc:title></cc:Work></rdf:RDF></metadata><defs
     id="defs2989" /><sodipodi:namedview
     pagecolor="#ffffff"
     bordercolor="#666666"
     borderopacity="1"
     objecttolerance="10"
     gridtolerance="10"
     guidetolerance="10"
     inkscape:pageopacity="0"
     inkscape:pageshadow="2"
     inkscape:window-width="1366"
     inkscape:window-height="752"
     id="namedview2987"
     showgrid="false"
     inkscape:zoom="2.695"
     inkscape:cx="37.385851"
     inkscape:cy="81.377618"
     inkscape:window-x="0"
     inkscape:window-y="16"
     inkscape:window-maximized="0"
     inkscape:current-layer="g2993"
     fit-margin-top="0"
     fit-margin-left="0"
     fit-margin-right="0"
     fit-margin-bottom="0" /><g
     id="g2993"
     inkscape:groupmode="layer"
     inkscape:label="ink_ext_XXXXXX"
     transform="matrix(1.25,0,0,-1.25,-0.00136749,107.8231)"><path
       inkscape:connector-curvature="0"
       id="path2997"
       style="fill:none;stroke:#000000;stroke-width:0.24000001;stroke-linecap:butt;stroke-linejoin:miter;stroke-miterlimit:10;stroke-opacity:1;stroke-dasharray:none"
       d="m 0.121094,74.4371 121.921906,0 M 0.121094,69.398 122.043,69.398 M 0.121094,64.359 122.043,64.359 M 0.121094,59.3199 l 121.921906,0 M 0.121094,54.277 l 121.921906,0" /><path
       inkscape:connector-curvature="0"
       id="path2999"
       style="fill:none;stroke:#000000;stroke-width:0.24000001;stroke-linecap:butt;stroke-linejoin:miter;stroke-miterlimit:10;stroke-opacity:1;stroke-dasharray:none"
       d="m 0.121094,23.559 121.921906,0 M 0.121094,17.8012 l 121.921906,0 M 0.121094,12.0391 l 121.921906,0 M 0.121094,6.27695 l 121.921906,0" /><path
       inkscape:connector-curvature="0"
       id="path3001"
       style="fill:#000000;fill-opacity:1;fill-rule:evenodd;stroke:none"
       d="m 13.8949,79.4059 c 0.0973,0.0511 0.1129,0.0511 0.2141,0.0511 0.1289,-0.016 0.2109,-0.066 0.3949,-0.266 1.184,-1.218 2.1762,-3.3941 2.4223,-5.2379 0.0308,-0.2972 0.0308,-0.9883 0,-1.3051 -0.184,-1.6949 -0.891,-3.246 -2.5242,-5.4679 l -0.2301,-0.3129 0.1332,-0.3793 c 0.3121,-0.9059 0.675,-2.0109 0.9058,-2.8199 0.0661,-0.195 0.1172,-0.3629 0.1172,-0.3789 0,0 0.1129,0 0.2309,-0.0161 0.5738,-0.05 1.0699,-0.1789 1.582,-0.4289 0.4102,-0.2113 0.7731,-0.4613 1.1211,-0.789 0.375,-0.3789 0.625,-0.727 0.8551,-1.2031 0.3437,-0.6918 0.4918,-1.418 0.4769,-2.145 -0.016,-0.4609 -0.082,-0.805 -0.2312,-1.234 -0.1949,-0.625 -0.5578,-1.2031 -1.0539,-1.7 -0.4262,-0.425 -0.825,-0.691 -1.352,-0.9019 l -0.1949,-0.082 0,-0.5942 c 0,-0.8429 -0.0512,-1.832 -0.1172,-2.425 -0.0668,-0.6097 -0.2308,-1.184 -0.4929,-1.7109 -0.695,-1.4031 -1.9141,-2.1449 -3.2809,-2.0121 -1.5473,0.148 -2.8012,1.2031 -3.11329,2.6211 -0.14883,0.641 -0.08164,1.1371 0.18008,1.5468 0.34731,0.5473 1.00701,0.859 1.64801,0.8403 0.7582,-0.0321 1.3672,-0.625 1.484,-1.45 0.0821,-0.6602 -0.1988,-1.2692 -0.7258,-1.5973 -0.2972,-0.1797 -0.707,-0.2617 -1.0203,-0.2148 -0.0508,0 -0.1008,0.016 -0.1008,0 l 0.1989,-0.195 c 0.3633,-0.364 0.773,-0.5941 1.3011,-0.7109 0.1168,-0.016 0.2149,-0.016 0.4758,-0.016 0.2973,0 0.3321,0 0.4961,0.0348 0.2313,0.0632 0.4301,0.1453 0.6102,0.2461 0.8238,0.4929 1.3828,1.516 1.5308,2.75 0.0512,0.4609 0.102,1.45 0.102,2.1761 0,0.477 0,0.5117 -0.0359,0.5117 -0.0661,-0.0347 -0.4098,-0.0668 -0.6598,-0.082 -0.3121,-0.0199 -0.8402,-0.0199 -1.0863,0.0152 -0.9719,0.118 -1.8629,0.4461 -2.636,0.9891 -1.1527,0.8078 -1.97693,2.0109 -2.32498,3.3938 -0.44492,1.7312 -0.1289,3.5742 0.95708,5.5203 0.4609,0.8078 0.907,1.4687 2.0121,2.9328 l 0.625,0.8398 -0.1172,0.3172 c -0.7891,2.0891 -1.0547,3.293 -1.1367,5.0391 -0.0313,0.7578 0,1.4019 0.1019,1.9289 0.2457,1.3832 0.8859,2.6211 1.8938,3.6101 0.1961,0.195 0.2781,0.261 0.364,0.3118 m 1.3,-2.8161 c -0.164,0.2774 -0.1328,0.2622 -0.2808,0.1641 -0.461,-0.2809 -0.9371,-0.707 -1.2852,-1.1367 -0.707,-0.9063 -1.1059,-1.9613 -1.1519,-3.0973 -0.0161,-0.4609 0.0308,-0.7578 0.246,-1.4687 0.1641,-0.5782 0.625,-1.9774 0.6598,-2.0121 0,-0.0161 0.0973,0.1019 0.1953,0.25 1.141,1.6289 1.75,2.9648 1.9809,4.3007 0.0461,0.3481 0.082,0.625 0.0969,1.0192 0.016,0.907 -0.0821,1.3519 -0.461,1.9808 M 13.777,65.5 c -0.0969,0.3129 -0.1989,0.559 -0.1989,0.559 -0.016,0 -0.707,-0.9219 -1.0043,-1.336 -0.9718,-1.3679 -1.566,-2.473 -1.9097,-3.5589 -0.2301,-0.6762 -0.3321,-1.3012 -0.3629,-1.9922 0,-0.3789 0.0148,-0.609 0.0816,-0.891 0.3793,-1.468 1.9453,-2.6719 3.7891,-2.9329 0.2812,-0.0351 1.0703,-0.0351 1.4179,0 0.3481,0.05 0.3122,0.0309 0.2973,0.179 -0.098,1.5671 -0.2312,2.5242 -0.4922,3.9421 -0.1019,0.5899 -0.3828,1.8438 -0.3988,1.859 -0.016,0.0199 -0.3281,-0.0152 -0.5082,-0.066 -0.234,-0.0473 -0.3789,-0.098 -0.5777,-0.1961 -1.0704,-0.543 -1.3872,-1.7808 -0.7114,-2.7851 0.1172,-0.1637 0.4141,-0.461 0.5942,-0.5778 0.066,-0.0511 0.2148,-0.148 0.316,-0.1953 0.1449,-0.0859 0.1801,-0.1168 0.2109,-0.184 0.1332,-0.2148 0.0512,-0.4758 -0.1949,-0.5937 -0.1328,-0.066 -0.2301,-0.0461 -0.4961,0.0828 -0.641,0.316 -1.1211,0.7422 -1.4648,1.2691 -0.6442,0.9879 -0.7262,2.2578 -0.1993,3.3282 0.4614,0.9257 1.2852,1.5507 2.3403,1.7808 0.0969,0.032 0.1828,0.0512 0.1828,0.0512 0.016,0.0156 -0.4449,1.5156 -0.7109,2.2578 m 2.2429,-4.2539 c -0.0508,0 -0.1019,0.016 -0.1179,0.016 l -0.0469,0.0188 0.0828,-0.3469 c 0.3781,-1.6641 0.6601,-3.477 0.757,-5.0078 0.016,-0.1684 0.016,-0.2973 0.016,-0.2973 0.0161,0 0.2301,0.0981 0.3481,0.1801 0.2769,0.164 0.543,0.4101 0.757,0.691 0.5078,0.6762 0.6918,1.516 0.493,2.375 -0.1488,0.691 -0.543,1.332 -1.102,1.777 -0.348,0.266 -0.809,0.496 -1.1871,0.5941" /><path
       inkscape:connector-curvature="0"
       id="path3005"
       style="fill:#ffffff;fill-opacity:1;fill-rule:evenodd;stroke:none"
       d="m 41.723,1 5.28086,0 0,10.559 -5.28086,0 0,-10.559 z" /><path
       inkscape:connector-curvature="0"
       id="path3007"
       style="fill:#000000;fill-opacity:1;fill-rule:nonzero;stroke:none"
       d="m 42.1449,6.44883 c 0,0.84414 0.0821,1.52031 0.25,2.03125 0.175,0.51992 0.4371,0.92187 0.7813,1.2039 0.3437,0.28086 0.7726,0.42112 1.2968,0.42112 0.3821,0 0.718,-0.0781 1,-0.23401 0.2891,-0.15625 0.5309,-0.3832 0.718,-0.67226 0.1961,-0.29297 0.3481,-0.64766 0.4539,-1.06172 0.1012,-0.41797 0.1563,-0.98125 0.1563,-1.68828 0,-0.84375 -0.0903,-1.52695 -0.266,-2.04688 C 46.3672,3.89102 46.1129,3.49609 45.7699,3.21484 45.4262,2.93398 44.9922,2.79297 44.473,2.79297 c -0.6878,0 -1.2308,0.25 -1.625,0.75 -0.4691,0.59414 -0.7031,1.56211 -0.7031,2.90586 z m 0.8903,0 c 0,-1.17891 0.1328,-1.96485 0.4058,-2.35899 0.282,-0.38671 0.625,-0.57773 1.032,-0.57773 0.4059,0 0.7418,0.19102 1.0149,0.57773 0.282,0.39414 0.4223,1.18008 0.4223,2.35899 0,1.17617 -0.1403,1.95703 -0.4223,2.34414 -0.2731,0.3832 -0.6168,0.57812 -1.0309,0.57812 -0.398,0 -0.7191,-0.16796 -0.9691,-0.5 C 43.184,8.43398 43.0352,7.625 43.0352,6.44883" /><g
       id="g3170"><path
         d="m 43.8828,58.3129 c 0,-0.8168 0.7973,-1.6328 1.582,-1.6328 2.4024,0 4.8012,1.6328 4.8012,3.2148 0,0.7891 -0.8172,1.5852 -1.5859,1.5852 -2.3992,0 -4.7973,-1.5852 -4.7973,-3.1672"
         style="fill:#000000;fill-opacity:1;fill-rule:evenodd;stroke:none"
         id="path3003"
         inkscape:connector-curvature="0" /><g
         id="g3167"><path
           inkscape:connector-curvature="0"
           id="path3009"
           style="fill:none;stroke:#000000;stroke-width:0.24000001;stroke-linecap:butt;stroke-linejoin:miter;stroke-miterlimit:10;stroke-opacity:1;stroke-dasharray:none"
           d="m 43.8828,58.359 0,-18.4801" /></g></g><path
       inkscape:connector-curvature="0"
       id="path3017"
       style="fill:#ffffff;fill-opacity:1;fill-rule:evenodd;stroke:none"
       d="m 54.9219,6.76094 5.28125,0 0,10.559 -5.28125,0 0,-10.559 z" /><path
       inkscape:connector-curvature="0"
       id="path3019"
       style="fill:#000000;fill-opacity:1;fill-rule:nonzero;stroke:none"
       d="m 55.3441,12.2109 c 0,0.8442 0.0821,1.5192 0.25,2.0313 0.1758,0.5199 0.4368,0.9219 0.7809,1.2027 0.3441,0.2821 0.773,0.4223 1.2969,0.4223 0.3832,0 0.7191,-0.0781 1,-0.2344 0.289,-0.1558 0.5312,-0.3828 0.7191,-0.6719 0.1949,-0.2929 0.3469,-0.648 0.4531,-1.0629 C 59.9449,13.4801 60,12.918 60,12.2109 60,11.3672 59.9102,10.684 59.734,10.1641 59.566,9.65195 59.3121,9.25781 58.9691,8.97695 58.625,8.69492 58.191,8.55508 57.6719,8.55508 c -0.6879,0 -1.2309,0.25 -1.625,0.75 -0.4688,0.59297 -0.7028,1.56212 -0.7028,2.90582 z m 0.8899,0 c 0,-1.18 0.1332,-1.9648 0.407,-2.35895 0.2809,-0.38711 0.625,-0.5789 1.0309,-0.5789 0.4062,0 0.7422,0.19179 1.016,0.5789 0.2812,0.39415 0.4211,1.17895 0.4211,2.35895 0,1.1762 -0.1399,1.9571 -0.4211,2.3442 -0.2738,0.3828 -0.618,0.5777 -1.032,0.5777 -0.3981,0 -0.718,-0.168 -0.968,-0.5 -0.3051,-0.4379 -0.4539,-1.2457 -0.4539,-2.4219" /><g
       id="g3161"><path
         d="m 54.5629,49.2379 10.0781,0"
         style="fill:none;stroke:#000000;stroke-width:0.24000001;stroke-linecap:butt;stroke-linejoin:miter;stroke-miterlimit:10;stroke-opacity:1;stroke-dasharray:none"
         id="path3011"
         inkscape:connector-curvature="0" /><path
         d="m 54.5629,49.2379 10.0781,0"
         style="fill:none;stroke:#000000;stroke-width:0.24000001;stroke-linecap:butt;stroke-linejoin:miter;stroke-miterlimit:10;stroke-opacity:1;stroke-dasharray:none"
         id="path3013"
         inkscape:connector-curvature="0" /><path
         d="m 57.082,48.2301 c 0,-0.816 0.7969,-1.6321 1.5821,-1.6321 2.4019,0 4.8007,1.6321 4.8007,3.218 0,0.786 -0.8168,1.582 -1.582,1.582 -2.4027,0 -4.8008,-1.582 -4.8008,-3.1679"
         style="fill:#000000;fill-opacity:1;fill-rule:evenodd;stroke:none"
         id="path3015"
         inkscape:connector-curvature="0" /><path
         d="m 63.5629,49.7191 0,19.6789"
         style="fill:none;stroke:#000000;stroke-width:0.24000001;stroke-linecap:butt;stroke-linejoin:miter;stroke-miterlimit:10;stroke-opacity:1;stroke-dasharray:none"
         id="path3021"
         inkscape:connector-curvature="0" /></g><path
       inkscape:connector-curvature="0"
       id="path3025"
       style="fill:#ffffff;fill-opacity:1;fill-rule:evenodd;stroke:none"
       d="m 68.1211,12.5191 5.28086,0 0,10.559 -5.28086,0 0,-10.559 z" /><path
       inkscape:connector-curvature="0"
       id="path3027"
       style="fill:#000000;fill-opacity:1;fill-rule:nonzero;stroke:none"
       d="m 68.543,17.9691 c 0,0.8438 0.082,1.5188 0.25,2.0309 0.1761,0.5199 0.4371,0.9219 0.7808,1.2031 0.3442,0.2809 0.7742,0.4219 1.2973,0.4219 0.3828,0 0.7187,-0.0781 1,-0.234 0.2891,-0.157 0.5309,-0.3832 0.7187,-0.6719 0.1954,-0.2929 0.3481,-0.6492 0.4532,-1.0632 0.1019,-0.418 0.1558,-0.9797 0.1558,-1.6868 0,-0.8441 -0.0898,-1.5281 -0.2648,-2.0472 -0.168,-0.5117 -0.4219,-0.9059 -0.766,-1.1879 -0.3442,-0.2809 -0.777,-0.4211 -1.2969,-0.4211 -0.6871,0 -1.2301,0.25 -1.625,0.75 -0.4691,0.593 -0.7031,1.5621 -0.7031,2.9062 z m 0.891,0 c 0,-1.18 0.132,-1.9652 0.4058,-2.3601 0.2813,-0.386 0.625,-0.5781 1.0313,-0.5781 0.4059,0 0.7418,0.1921 1.016,0.5781 0.2809,0.3949 0.4219,1.1801 0.4219,2.3601 0,1.1758 -0.141,1.9571 -0.4219,2.3438 -0.2742,0.382 -0.6172,0.5781 -1.032,0.5781 -0.3981,0 -0.718,-0.168 -0.968,-0.5 C 69.582,19.9531 69.434,19.1449 69.434,17.9691" /><g
       id="g3157"><path
         d="m 70.2809,53.2699 c 0,-0.8168 0.7972,-1.6289 1.5863,-1.6289 2.3988,0 4.7969,1.6289 4.7969,3.2141 0,0.7859 -0.8161,1.5828 -1.5821,1.5828 -2.4019,0 -4.8011,-1.5828 -4.8011,-3.168"
         style="fill:#000000;fill-opacity:1;fill-rule:evenodd;stroke:none"
         id="path3023"
         inkscape:connector-curvature="0" /><path
         d="m 76.7621,54.7582 0,19.6789"
         style="fill:none;stroke:#000000;stroke-width:0.24000001;stroke-linecap:butt;stroke-linejoin:miter;stroke-miterlimit:10;stroke-opacity:1;stroke-dasharray:none"
         id="path3029"
         inkscape:connector-curvature="0" /></g><path
       inkscape:connector-curvature="0"
       id="path3033"
       style="fill:#ffffff;fill-opacity:1;fill-rule:evenodd;stroke:none"
       d="m 81.3199,18.2809 5.28125,0 0,10.559 -5.28125,0 0,-10.559 z" /><path
       inkscape:connector-curvature="0"
       id="path3035"
       style="fill:#000000;fill-opacity:1;fill-rule:nonzero;stroke:none"
       d="m 81.7422,23.7301 c 0,0.8437 0.0816,1.5199 0.25,2.032 0.1758,0.5188 0.4379,0.9219 0.7808,1.2027 0.3442,0.2813 0.7739,0.4223 1.2969,0.4223 0.3832,0 0.7192,-0.0781 1,-0.2351 0.2891,-0.1559 0.5321,-0.3821 0.7192,-0.6719 0.1949,-0.2922 0.348,-0.6481 0.4531,-1.0621 0.1019,-0.418 0.1558,-0.9801 0.1558,-1.6879 0,-0.843 -0.089,-1.527 -0.2652,-2.0461 -0.168,-0.5121 -0.4219,-0.907 -0.7656,-1.1879 -0.3442,-0.2813 -0.7774,-0.4223 -1.2973,-0.4223 -0.6871,0 -1.2301,0.25 -1.625,0.75 -0.4679,0.5942 -0.7027,1.5633 -0.7027,2.9063 z m 0.8906,0 c 0,-1.1789 0.1332,-1.9641 0.4063,-2.359 0.2808,-0.3871 0.625,-0.5781 1.0308,-0.5781 0.4071,0 0.7422,0.191 1.016,0.5781 0.2813,0.3949 0.4219,1.1801 0.4219,2.359 0,1.1758 -0.1406,1.9578 -0.4219,2.3437 -0.2738,0.3832 -0.6168,0.5782 -1.0308,0.5782 -0.3992,0 -0.7192,-0.168 -0.9692,-0.5 -0.305,-0.4372 -0.4531,-1.2461 -0.4531,-2.4219" /><g
       id="g3153"><path
         d="m 83.4801,60.9531 c 0,-0.8203 0.7969,-1.6332 1.5859,-1.6332 2.3988,0 4.8012,1.6332 4.8012,3.2153 0,0.7847 -0.816,1.582 -1.5863,1.582 -2.3981,0 -4.8008,-1.582 -4.8008,-3.1641"
         style="fill:#000000;fill-opacity:1;fill-rule:evenodd;stroke:none"
         id="path3031"
         inkscape:connector-curvature="0" /><path
         d="m 83.4801,61 0,-18.4809"
         style="fill:none;stroke:#000000;stroke-width:0.24000001;stroke-linecap:butt;stroke-linejoin:miter;stroke-miterlimit:10;stroke-opacity:1;stroke-dasharray:none"
         id="path3037"
         inkscape:connector-curvature="0" /></g><path
       inkscape:connector-curvature="0"
       id="path3039"
       style="fill:none;stroke:#000000;stroke-width:0.24000001;stroke-linecap:butt;stroke-linejoin:miter;stroke-miterlimit:10;stroke-opacity:1;stroke-dasharray:none"
       d="m 0.121094,23.5582 1.92188,0 0,50.8789 -1.92188,0 0,-50.8789 z" /><path
       inkscape:connector-curvature="0"
       id="path3041"
       style="fill:#000000;fill-opacity:1;fill-rule:evenodd;stroke:none"
       d="m 0.121094,23.559 1.92188,0 0,50.8789 -1.92188,0 0,-50.8789 z" /><path
       inkscape:connector-curvature="0"
       id="path3043"
       style="fill:none;stroke:#000000;stroke-width:0.24000001;stroke-linecap:butt;stroke-linejoin:miter;stroke-miterlimit:10;stroke-opacity:1;stroke-dasharray:none"
       d="m 2.91016,74.4371 0,-50.8781" /><path
       inkscape:connector-curvature="0"
       id="path3045"
       style="fill:none;stroke:#000000;stroke-width:0.24000001;stroke-linecap:butt;stroke-linejoin:miter;stroke-miterlimit:10;stroke-opacity:1;stroke-dasharray:none"
       d="m 119.25,74.4371 0,-20.1601" /><path
       inkscape:connector-curvature="0"
       id="path3047"
       style="fill:none;stroke:#000000;stroke-width:0.24000001;stroke-linecap:butt;stroke-linejoin:miter;stroke-miterlimit:10;stroke-opacity:1;stroke-dasharray:none"
       d="m 120.121,54.277 1.92188,0 0,20.1602 -1.92188,0 0,-20.1602 z" /><path
       inkscape:connector-curvature="0"
       id="path3049"
       style="fill:#000000;fill-opacity:1;fill-rule:evenodd;stroke:none"
       d="m 120.121,54.2781 1.92188,0 0,20.1598 -1.92188,0 0,-20.1598 z" /><path
       inkscape:connector-curvature="0"
       id="path3051"
       style="fill:none;stroke:#000000;stroke-width:0.24000001;stroke-linecap:butt;stroke-linejoin:miter;stroke-miterlimit:10;stroke-opacity:1;stroke-dasharray:none"
       d="m 0.121094,6.27813 1.92188,0 0,17.2809 -1.92188,0 0,-17.2809 z" /><path
       inkscape:connector-curvature="0"
       id="path3053"
       style="fill:#000000;fill-opacity:1;fill-rule:evenodd;stroke:none"
       d="m 0.121094,6.27813 1.92188,0 0,17.2809 -1.92188,0 0,-17.2809 z" /><path
       inkscape:connector-curvature="0"
       id="path3055"
       style="fill:none;stroke:#000000;stroke-width:0.24000001;stroke-linecap:butt;stroke-linejoin:miter;stroke-miterlimit:10;stroke-opacity:1;stroke-dasharray:none"
       d="m 2.91016,23.559 0,-17.28205" /><path
       inkscape:connector-curvature="0"
       id="path3057"
       style="fill:none;stroke:#000000;stroke-width:0.24000001;stroke-linecap:butt;stroke-linejoin:miter;stroke-miterlimit:10;stroke-opacity:1;stroke-dasharray:none"
       d="m 119.25,23.559 0,-17.28205" /><path
       inkscape:connector-curvature="0"
       id="path3059"
       style="fill:none;stroke:#000000;stroke-width:0.24000001;stroke-linecap:butt;stroke-linejoin:miter;stroke-miterlimit:10;stroke-opacity:1;stroke-dasharray:none"
       d="m 120.121,6.27813 1.92188,0 0,17.2809 -1.92188,0 0,-17.2809 z" /><path
       inkscape:connector-curvature="0"
       id="path3061"
       style="fill:#000000;fill-opacity:1;fill-rule:evenodd;stroke:none"
       d="m 120.121,6.27813 1.92188,0 0,17.2809 -1.92188,0 0,-17.2809 z" /><text
       xml:space="preserve"
       style="font-size:11.19999980999999956px;font-style:normal;font-variant:normal;font-weight:normal;font-stretch:normal;line-height:125%;letter-spacing:0px;word-spacing:0px;fill:#000000;fill-opacity:1;stroke:none;font-family:Vesper Pro;-inkscape-font-specification:Vesper Pro"
       x="43.122555"
       y="-78.274101"
       id="text3175"
       sodipodi:linespacing="125%"
       transform="scale(1,-1)"><tspan
         sodipodi:role="line"
         id="tspan3177"
         x="43.122555"
         y="-78.274101">G</tspan></text>
<text
       xml:space="preserve"
       style="font-size:11.19999981px;font-style:normal;font-variant:normal;font-weight:normal;font-stretch:normal;line-height:125%;letter-spacing:0px;word-spacing:0px;fill:#000000;fill-opacity:1;stroke:none;font-family:Alef;-inkscape-font-specification:Alef"
       x="57.01429"
       y="-78.274101"
       id="text3175-2"
       sodipodi:linespacing="125%"
       transform="scale(1,-1)"><tspan
         sodipodi:role="line"
         id="tspan3177-8"
         x="57.01429"
         y="-78.274101"
         style="-inkscape-font-specification:Vesper Pro;font-family:Vesper Pro;font-weight:normal;font-style:normal;font-stretch:normal;font-variant:normal">C</tspan></text>
<text
       xml:space="preserve"
       style="font-size:11.19999981px;font-style:normal;font-variant:normal;font-weight:normal;font-stretch:normal;line-height:125%;letter-spacing:0px;word-spacing:0px;fill:#000000;fill-opacity:1;stroke:none;font-family:Alef;-inkscape-font-specification:Alef"
       x="70.885483"
       y="-78.246758"
       id="text3175-2-0"
       sodipodi:linespacing="125%"
       transform="scale(1,-1)"><tspan
         sodipodi:role="line"
         id="tspan3177-8-2"
         x="70.885483"
         y="-78.246758"
         style="font-style:normal;font-variant:normal;font-weight:normal;font-stretch:normal;font-family:Vesper Pro;-inkscape-font-specification:Vesper Pro">E</tspan></text>
<text
       xml:space="preserve"
       style="font-size:11.19999981px;font-style:normal;font-variant:normal;font-weight:normal;font-stretch:normal;line-height:125%;letter-spacing:0px;word-spacing:0px;fill:#000000;fill-opacity:1;stroke:none;font-family:Alef;-inkscape-font-specification:Alef"
       x="83.250626"
       y="-78.213943"
       id="text3175-2-0-5"
       sodipodi:linespacing="125%"
       transform="scale(1,-1)"><tspan
         sodipodi:role="line"
         id="tspan3177-8-2-8"
         x="83.250626"
         y="-78.213943"
         style="font-style:normal;font-variant:normal;font-weight:normal;font-stretch:normal;font-family:Vesper Pro;-inkscape-font-specification:Vesper Pro">A</tspan></text>
</g></svg>